<mxfile host="65bd71144e">
    <diagram id="xgPmIy7x-2bdjcsvFAJj" name="Page-1">
        <mxGraphModel dx="1200" dy="1230" grid="0" gridSize="10" guides="1" tooltips="1" connect="1" arrows="1" fold="1" page="0" pageScale="1" pageWidth="850" pageHeight="1100" background="#114B5F" math="0" shadow="0">
            <root>
                <mxCell id="0"/>
                <mxCell id="1" parent="0"/>
                <mxCell id="SgiMwrDikQmU-P0cPzHS-89" value="App" style="swimlane;fontStyle=0;align=center;verticalAlign=top;childLayout=stackLayout;horizontal=1;startSize=26;horizontalStack=0;resizeParent=1;resizeLast=0;collapsible=1;marginBottom=0;rounded=1;shadow=0;strokeWidth=1;hachureGap=4;fontFamily=Verdana;fontSize=20;fillColor=#F45B69;strokeColor=#028090;fontColor=#E4FDE1;" parent="1" vertex="1">
                    <mxGeometry x="200" y="-102" width="160" height="138" as="geometry">
                        <mxRectangle x="230" y="140" width="160" height="26" as="alternateBounds"/>
                    </mxGeometry>
                </mxCell>
                <mxCell id="SgiMwrDikQmU-P0cPzHS-93" value="" style="line;html=1;strokeWidth=1;align=left;verticalAlign=middle;spacingTop=-1;spacingLeft=3;spacingRight=3;rotatable=0;labelPosition=right;points=[];portConstraint=eastwest;hachureGap=4;fontFamily=Verdana;fontSize=20;fontStyle=0;rounded=1;labelBackgroundColor=#114B5F;fillColor=#F45B69;strokeColor=#028090;fontColor=#E4FDE1;" parent="SgiMwrDikQmU-P0cPzHS-89" vertex="1">
                    <mxGeometry y="26" width="160" height="8" as="geometry"/>
                </mxCell>
                <mxCell id="SgiMwrDikQmU-P0cPzHS-153" value="isSignedIn" style="whiteSpace=wrap;html=1;rounded=0;sketch=1;hachureGap=4;fontFamily=Architects Daughter;fontSource=https%3A%2F%2Ffonts.googleapis.com%2Fcss%3Ffamily%3DArchitects%2BDaughter;fontSize=20;fontColor=#E4FDE1;strokeColor=#028090;fillColor=#F45B69;" parent="SgiMwrDikQmU-P0cPzHS-89" vertex="1">
                    <mxGeometry y="34" width="160" height="60" as="geometry"/>
                </mxCell>
                <mxCell id="SgiMwrDikQmU-P0cPzHS-134" value="Home" style="swimlane;fontStyle=0;align=center;verticalAlign=top;childLayout=stackLayout;horizontal=1;startSize=26;horizontalStack=0;resizeParent=1;resizeLast=0;collapsible=1;marginBottom=0;rounded=1;shadow=0;strokeWidth=1;hachureGap=4;fontFamily=Verdana;fontSize=20;fillColor=#cdeb8b;strokeColor=#36393d;gradientColor=none;" parent="1" vertex="1">
                    <mxGeometry x="407" y="-48" width="243" height="267" as="geometry">
                        <mxRectangle x="550" y="140" width="160" height="26" as="alternateBounds"/>
                    </mxGeometry>
                </mxCell>
                <mxCell id="SgiMwrDikQmU-P0cPzHS-135" value="" style="line;html=1;strokeWidth=1;align=left;verticalAlign=middle;spacingTop=-1;spacingLeft=3;spacingRight=3;rotatable=0;labelPosition=right;points=[];portConstraint=eastwest;hachureGap=4;fontFamily=Verdana;fontSize=20;fontStyle=0;rounded=1;labelBackgroundColor=#114B5F;fillColor=#F45B69;strokeColor=#028090;fontColor=#E4FDE1;" parent="SgiMwrDikQmU-P0cPzHS-134" vertex="1">
                    <mxGeometry y="26" width="243" height="8" as="geometry"/>
                </mxCell>
                <mxCell id="SgiMwrDikQmU-P0cPzHS-136" value="Play w Youtube" style="swimlane;fontStyle=0;align=center;verticalAlign=top;childLayout=stackLayout;horizontal=1;startSize=26;horizontalStack=0;resizeParent=1;resizeLast=0;collapsible=1;marginBottom=0;rounded=1;shadow=0;strokeWidth=2;hachureGap=4;fontFamily=Verdana;fontSize=20;fillColor=#cdeb8b;strokeColor=#FF00FF;" parent="1" vertex="1">
                    <mxGeometry x="696" y="-56" width="243" height="978" as="geometry">
                        <mxRectangle x="550" y="140" width="160" height="26" as="alternateBounds"/>
                    </mxGeometry>
                </mxCell>
                <mxCell id="SgiMwrDikQmU-P0cPzHS-137" value="" style="line;html=1;strokeWidth=1;align=left;verticalAlign=middle;spacingTop=-1;spacingLeft=3;spacingRight=3;rotatable=0;labelPosition=right;points=[];portConstraint=eastwest;hachureGap=4;fontFamily=Verdana;fontSize=20;fontStyle=0;rounded=1;labelBackgroundColor=#114B5F;fillColor=#F45B69;strokeColor=#028090;fontColor=#E4FDE1;" parent="SgiMwrDikQmU-P0cPzHS-136" vertex="1">
                    <mxGeometry y="26" width="243" height="8" as="geometry"/>
                </mxCell>
                <mxCell id="SgiMwrDikQmU-P0cPzHS-95" value="Youtube" style="swimlane;fontStyle=0;align=center;verticalAlign=top;childLayout=stackLayout;horizontal=1;startSize=26;horizontalStack=0;resizeParent=1;resizeLast=0;collapsible=1;marginBottom=0;rounded=1;shadow=0;strokeWidth=1;hachureGap=4;fontFamily=Verdana;fontSize=20;fillColor=#F45B69;strokeColor=#028090;fontColor=#E4FDE1;" parent="SgiMwrDikQmU-P0cPzHS-136" vertex="1">
                    <mxGeometry y="34" width="243" height="168" as="geometry">
                        <mxRectangle x="130" y="380" width="160" height="26" as="alternateBounds"/>
                    </mxGeometry>
                </mxCell>
                <mxCell id="SgiMwrDikQmU-P0cPzHS-98" value="" style="line;html=1;strokeWidth=1;align=left;verticalAlign=middle;spacingTop=-1;spacingLeft=3;spacingRight=3;rotatable=0;labelPosition=right;points=[];portConstraint=eastwest;hachureGap=4;fontFamily=Verdana;fontSize=20;fontStyle=0;rounded=1;labelBackgroundColor=#114B5F;fillColor=#F45B69;strokeColor=#028090;fontColor=#E4FDE1;" parent="SgiMwrDikQmU-P0cPzHS-95" vertex="1">
                    <mxGeometry y="26" width="243" height="8" as="geometry"/>
                </mxCell>
                <mxCell id="SgiMwrDikQmU-P0cPzHS-106" value="SynthComp" style="swimlane;fontStyle=0;align=center;verticalAlign=top;childLayout=stackLayout;horizontal=1;startSize=26;horizontalStack=0;resizeParent=1;resizeLast=0;collapsible=1;marginBottom=0;rounded=1;shadow=0;strokeWidth=3;hachureGap=4;fontFamily=Verdana;fontSize=20;fillColor=#F45B69;strokeColor=#00FFFF;fontColor=#E4FDE1;" parent="SgiMwrDikQmU-P0cPzHS-136" vertex="1">
                    <mxGeometry y="202" width="243" height="769" as="geometry">
                        <mxRectangle x="550" y="140" width="160" height="26" as="alternateBounds"/>
                    </mxGeometry>
                </mxCell>
                <mxCell id="SgiMwrDikQmU-P0cPzHS-112" value="" style="line;html=1;strokeWidth=1;align=left;verticalAlign=middle;spacingTop=-1;spacingLeft=3;spacingRight=3;rotatable=0;labelPosition=right;points=[];portConstraint=eastwest;hachureGap=4;fontFamily=Verdana;fontSize=20;fontStyle=0;rounded=1;labelBackgroundColor=#114B5F;fillColor=#F45B69;strokeColor=#028090;fontColor=#E4FDE1;" parent="SgiMwrDikQmU-P0cPzHS-106" vertex="1">
                    <mxGeometry y="26" width="243" height="8" as="geometry"/>
                </mxCell>
                <mxCell id="SgiMwrDikQmU-P0cPzHS-152" value="currEffects&lt;br&gt;notesArr&lt;br&gt;isRecording&lt;br&gt;currRecording" style="whiteSpace=wrap;html=1;rounded=0;sketch=1;hachureGap=4;fontFamily=Architects Daughter;fontSource=https%3A%2F%2Ffonts.googleapis.com%2Fcss%3Ffamily%3DArchitects%2BDaughter;fontSize=20;fontColor=#E4FDE1;strokeColor=#028090;fillColor=#F45B69;" parent="SgiMwrDikQmU-P0cPzHS-106" vertex="1">
                    <mxGeometry y="34" width="243" height="122" as="geometry"/>
                </mxCell>
                <mxCell id="SgiMwrDikQmU-P0cPzHS-168" value="isSignedIn" style="whiteSpace=wrap;html=1;rounded=0;sketch=1;hachureGap=4;fontFamily=Architects Daughter;fontSource=https%3A%2F%2Ffonts.googleapis.com%2Fcss%3Ffamily%3DArchitects%2BDaughter;fontSize=20;strokeColor=#FFFFFF;fillColor=#cce5ff;fontColor=#FFFFFF;" parent="SgiMwrDikQmU-P0cPzHS-106" vertex="1">
                    <mxGeometry y="156" width="243" height="60" as="geometry"/>
                </mxCell>
                <mxCell id="SgiMwrDikQmU-P0cPzHS-142" value="Keyboard" style="swimlane;fontStyle=0;align=center;verticalAlign=top;childLayout=stackLayout;horizontal=1;startSize=26;horizontalStack=0;resizeParent=1;resizeLast=0;collapsible=1;marginBottom=0;rounded=1;shadow=0;strokeWidth=1;hachureGap=4;fontFamily=Verdana;fontSize=20;fillColor=#F45B69;strokeColor=#028090;fontColor=#E4FDE1;" parent="SgiMwrDikQmU-P0cPzHS-106" vertex="1">
                    <mxGeometry y="216" width="243" height="100" as="geometry">
                        <mxRectangle x="550" y="140" width="160" height="26" as="alternateBounds"/>
                    </mxGeometry>
                </mxCell>
                <mxCell id="SgiMwrDikQmU-P0cPzHS-143" value="" style="line;html=1;strokeWidth=1;align=left;verticalAlign=middle;spacingTop=-1;spacingLeft=3;spacingRight=3;rotatable=0;labelPosition=right;points=[];portConstraint=eastwest;hachureGap=4;fontFamily=Verdana;fontSize=20;fontStyle=0;rounded=1;labelBackgroundColor=#114B5F;fillColor=#F45B69;strokeColor=#028090;fontColor=#E4FDE1;" parent="SgiMwrDikQmU-P0cPzHS-142" vertex="1">
                    <mxGeometry y="26" width="243" height="8" as="geometry"/>
                </mxCell>
                <mxCell id="SgiMwrDikQmU-P0cPzHS-159" value="notesArr&lt;br&gt;handleNoteClick()" style="whiteSpace=wrap;html=1;rounded=0;sketch=1;hachureGap=4;fontFamily=Architects Daughter;fontSource=https%3A%2F%2Ffonts.googleapis.com%2Fcss%3Ffamily%3DArchitects%2BDaughter;fontSize=20;strokeColor=#FFFFFF;fillColor=#cce5ff;fontColor=#FFFFFF;" parent="SgiMwrDikQmU-P0cPzHS-142" vertex="1">
                    <mxGeometry y="34" width="243" height="60" as="geometry"/>
                </mxCell>
                <mxCell id="SgiMwrDikQmU-P0cPzHS-102" value="Record Buttons" style="swimlane;fontStyle=0;align=center;verticalAlign=top;childLayout=stackLayout;horizontal=1;startSize=26;horizontalStack=0;resizeParent=1;resizeLast=0;collapsible=1;marginBottom=0;rounded=1;shadow=0;strokeWidth=1;hachureGap=4;fontFamily=Verdana;fontSize=20;fillColor=#F45B69;strokeColor=#028090;fontColor=#E4FDE1;" parent="SgiMwrDikQmU-P0cPzHS-106" vertex="1">
                    <mxGeometry y="316" width="243" height="453" as="geometry">
                        <mxRectangle x="340" y="380" width="170" height="26" as="alternateBounds"/>
                    </mxGeometry>
                </mxCell>
                <mxCell id="SgiMwrDikQmU-P0cPzHS-104" value="" style="line;html=1;strokeWidth=1;align=left;verticalAlign=middle;spacingTop=-1;spacingLeft=3;spacingRight=3;rotatable=0;labelPosition=right;points=[];portConstraint=eastwest;hachureGap=4;fontFamily=Verdana;fontSize=20;fontStyle=0;rounded=1;labelBackgroundColor=#114B5F;fillColor=#F45B69;strokeColor=#028090;fontColor=#E4FDE1;" parent="SgiMwrDikQmU-P0cPzHS-102" vertex="1">
                    <mxGeometry y="26" width="243" height="8" as="geometry"/>
                </mxCell>
                <mxCell id="SgiMwrDikQmU-P0cPzHS-144" value="rec/stop" style="text;html=1;align=center;verticalAlign=middle;resizable=0;points=[];autosize=1;strokeColor=none;fillColor=none;rounded=0;sketch=1;hachureGap=4;fontFamily=Architects Daughter;fontSource=https%3A%2F%2Ffonts.googleapis.com%2Fcss%3Ffamily%3DArchitects%2BDaughter;fontSize=20;fontColor=#E4FDE1;rotation=0;" parent="SgiMwrDikQmU-P0cPzHS-102" vertex="1">
                    <mxGeometry y="34" width="243" height="28" as="geometry"/>
                </mxCell>
                <mxCell id="SgiMwrDikQmU-P0cPzHS-145" value="Save Rec" style="text;html=1;align=center;verticalAlign=middle;resizable=0;points=[];autosize=1;strokeColor=none;fillColor=none;rounded=0;sketch=1;hachureGap=4;fontFamily=Architects Daughter;fontSource=https%3A%2F%2Ffonts.googleapis.com%2Fcss%3Ffamily%3DArchitects%2BDaughter;fontSize=20;fontColor=#E4FDE1;" parent="SgiMwrDikQmU-P0cPzHS-102" vertex="1">
                    <mxGeometry y="62" width="243" height="28" as="geometry"/>
                </mxCell>
                <mxCell id="SgiMwrDikQmU-P0cPzHS-146" value="Scrap Rec" style="text;html=1;align=center;verticalAlign=middle;resizable=0;points=[];autosize=1;strokeColor=none;fillColor=none;rounded=0;sketch=1;hachureGap=4;fontFamily=Architects Daughter;fontSource=https%3A%2F%2Ffonts.googleapis.com%2Fcss%3Ffamily%3DArchitects%2BDaughter;fontSize=20;fontColor=#E4FDE1;" parent="SgiMwrDikQmU-P0cPzHS-102" vertex="1">
                    <mxGeometry y="90" width="243" height="28" as="geometry"/>
                </mxCell>
                <mxCell id="SgiMwrDikQmU-P0cPzHS-147" value="Play Rec" style="text;html=1;align=center;verticalAlign=middle;resizable=0;points=[];autosize=1;strokeColor=none;fillColor=none;rounded=0;sketch=1;hachureGap=4;fontFamily=Architects Daughter;fontSource=https%3A%2F%2Ffonts.googleapis.com%2Fcss%3Ffamily%3DArchitects%2BDaughter;fontSize=20;fontColor=#E4FDE1;" parent="SgiMwrDikQmU-P0cPzHS-102" vertex="1">
                    <mxGeometry y="118" width="243" height="28" as="geometry"/>
                </mxCell>
                <mxCell id="SgiMwrDikQmU-P0cPzHS-148" value="HandleRecord()&lt;br&gt;HandlePlay()&lt;br&gt;" style="whiteSpace=wrap;rounded=0;sketch=1;hachureGap=4;fontFamily=Architects Daughter;fontSource=https%3A%2F%2Ffonts.googleapis.com%2Fcss%3Ffamily%3DArchitects%2BDaughter;fontSize=20;strokeColor=#36393d;fillColor=#cce5ff;fontColor=#FFFFFF;spacing=2;html=1;horizontal=1;verticalAlign=top;" parent="SgiMwrDikQmU-P0cPzHS-102" vertex="1">
                    <mxGeometry y="146" width="243" height="64" as="geometry"/>
                </mxCell>
                <mxCell id="SgiMwrDikQmU-P0cPzHS-160" value="Effect Buttons" style="swimlane;fontStyle=0;align=center;verticalAlign=top;childLayout=stackLayout;horizontal=1;startSize=26;horizontalStack=0;resizeParent=1;resizeLast=0;collapsible=1;marginBottom=0;rounded=1;shadow=0;strokeWidth=1;hachureGap=4;fontFamily=Verdana;fontSize=20;fillColor=#F45B69;strokeColor=#028090;fontColor=#E4FDE1;" parent="SgiMwrDikQmU-P0cPzHS-102" vertex="1">
                    <mxGeometry y="210" width="243" height="243" as="geometry">
                        <mxRectangle x="340" y="380" width="170" height="26" as="alternateBounds"/>
                    </mxGeometry>
                </mxCell>
                <mxCell id="SgiMwrDikQmU-P0cPzHS-161" value="" style="line;html=1;strokeWidth=1;align=left;verticalAlign=middle;spacingTop=-1;spacingLeft=3;spacingRight=3;rotatable=0;labelPosition=right;points=[];portConstraint=eastwest;hachureGap=4;fontFamily=Verdana;fontSize=20;fontStyle=0;rounded=1;labelBackgroundColor=#114B5F;fillColor=#F45B69;strokeColor=#028090;fontColor=#E4FDE1;" parent="SgiMwrDikQmU-P0cPzHS-160" vertex="1">
                    <mxGeometry y="26" width="243" height="8" as="geometry"/>
                </mxCell>
                <mxCell id="SgiMwrDikQmU-P0cPzHS-162" value="rec/stop" style="text;html=1;align=center;verticalAlign=middle;resizable=0;points=[];autosize=1;strokeColor=none;fillColor=none;rounded=0;sketch=1;hachureGap=4;fontFamily=Architects Daughter;fontSource=https%3A%2F%2Ffonts.googleapis.com%2Fcss%3Ffamily%3DArchitects%2BDaughter;fontSize=20;fontColor=#E4FDE1;rotation=0;" parent="SgiMwrDikQmU-P0cPzHS-160" vertex="1">
                    <mxGeometry y="34" width="243" height="28" as="geometry"/>
                </mxCell>
                <mxCell id="SgiMwrDikQmU-P0cPzHS-163" value="Save Rec" style="text;html=1;align=center;verticalAlign=middle;resizable=0;points=[];autosize=1;strokeColor=none;fillColor=none;rounded=0;sketch=1;hachureGap=4;fontFamily=Architects Daughter;fontSource=https%3A%2F%2Ffonts.googleapis.com%2Fcss%3Ffamily%3DArchitects%2BDaughter;fontSize=20;fontColor=#E4FDE1;" parent="SgiMwrDikQmU-P0cPzHS-160" vertex="1">
                    <mxGeometry y="62" width="243" height="28" as="geometry"/>
                </mxCell>
                <mxCell id="SgiMwrDikQmU-P0cPzHS-164" value="Scrap Rec" style="text;html=1;align=center;verticalAlign=middle;resizable=0;points=[];autosize=1;strokeColor=none;fillColor=none;rounded=0;sketch=1;hachureGap=4;fontFamily=Architects Daughter;fontSource=https%3A%2F%2Ffonts.googleapis.com%2Fcss%3Ffamily%3DArchitects%2BDaughter;fontSize=20;fontColor=#E4FDE1;" parent="SgiMwrDikQmU-P0cPzHS-160" vertex="1">
                    <mxGeometry y="90" width="243" height="28" as="geometry"/>
                </mxCell>
                <mxCell id="SgiMwrDikQmU-P0cPzHS-165" value="Play Rec" style="text;html=1;align=center;verticalAlign=middle;resizable=0;points=[];autosize=1;strokeColor=none;fillColor=none;rounded=0;sketch=1;hachureGap=4;fontFamily=Architects Daughter;fontSource=https%3A%2F%2Ffonts.googleapis.com%2Fcss%3Ffamily%3DArchitects%2BDaughter;fontSize=20;fontColor=#E4FDE1;" parent="SgiMwrDikQmU-P0cPzHS-160" vertex="1">
                    <mxGeometry y="118" width="243" height="28" as="geometry"/>
                </mxCell>
                <mxCell id="SgiMwrDikQmU-P0cPzHS-166" value="handleEffectChange" style="whiteSpace=wrap;html=1;rounded=0;sketch=1;hachureGap=4;fontFamily=Architects Daughter;fontSource=https%3A%2F%2Ffonts.googleapis.com%2Fcss%3Ffamily%3DArchitects%2BDaughter;fontSize=20;strokeColor=#36393d;fillColor=#cce5ff;fontColor=#FFFFFF;" parent="SgiMwrDikQmU-P0cPzHS-160" vertex="1">
                    <mxGeometry y="146" width="243" height="44" as="geometry"/>
                </mxCell>
                <mxCell id="SgiMwrDikQmU-P0cPzHS-167" value="effect input values" style="whiteSpace=wrap;html=1;rounded=0;sketch=1;hachureGap=4;fontFamily=Architects Daughter;fontSource=https%3A%2F%2Ffonts.googleapis.com%2Fcss%3Ffamily%3DArchitects%2BDaughter;fontSize=20;fontColor=#FFFFFF;strokeColor=#FFFFFF;fillColor=#F45B69;gradientColor=none;" parent="SgiMwrDikQmU-P0cPzHS-160" vertex="1">
                    <mxGeometry y="190" width="243" height="51" as="geometry"/>
                </mxCell>
                <mxCell id="SgiMwrDikQmU-P0cPzHS-138" value="Kids Corner" style="swimlane;fontStyle=0;align=center;verticalAlign=top;childLayout=stackLayout;horizontal=1;startSize=26;horizontalStack=0;resizeParent=1;resizeLast=0;collapsible=1;marginBottom=0;rounded=1;shadow=0;strokeWidth=1;hachureGap=4;fontFamily=Verdana;fontSize=20;fillColor=#cdeb8b;strokeColor=#36393d;" parent="1" vertex="1">
                    <mxGeometry x="972" y="-58" width="243" height="1322" as="geometry">
                        <mxRectangle x="550" y="140" width="160" height="26" as="alternateBounds"/>
                    </mxGeometry>
                </mxCell>
                <mxCell id="SgiMwrDikQmU-P0cPzHS-191" value="songsObj&lt;br&gt;selectedSong&lt;br&gt;currSongKeyboard&lt;br&gt;" style="whiteSpace=wrap;html=1;rounded=0;sketch=1;hachureGap=4;fontFamily=Architects Daughter;fontSource=https%3A%2F%2Ffonts.googleapis.com%2Fcss%3Ffamily%3DArchitects%2BDaughter;fontSize=20;fontColor=#FFFFFF;strokeColor=#00FFFF;strokeWidth=2;fillColor=#F45B69;gradientColor=none;" parent="SgiMwrDikQmU-P0cPzHS-138" vertex="1">
                    <mxGeometry y="26" width="243" height="104" as="geometry"/>
                </mxCell>
                <mxCell id="SgiMwrDikQmU-P0cPzHS-195" value="SongDisplay" style="swimlane;fontStyle=0;align=center;verticalAlign=top;childLayout=stackLayout;horizontal=1;startSize=26;horizontalStack=0;resizeParent=1;resizeLast=0;collapsible=1;marginBottom=0;rounded=1;shadow=0;strokeWidth=1;hachureGap=4;fontFamily=Verdana;fontSize=20;fillColor=#F45B69;strokeColor=#028090;fontColor=#E4FDE1;" parent="SgiMwrDikQmU-P0cPzHS-138" vertex="1">
                    <mxGeometry y="130" width="243" height="361" as="geometry">
                        <mxRectangle x="550" y="140" width="160" height="26" as="alternateBounds"/>
                    </mxGeometry>
                </mxCell>
                <mxCell id="SgiMwrDikQmU-P0cPzHS-196" value="" style="line;html=1;strokeWidth=1;align=left;verticalAlign=middle;spacingTop=-1;spacingLeft=3;spacingRight=3;rotatable=0;labelPosition=right;points=[];portConstraint=eastwest;hachureGap=4;fontFamily=Verdana;fontSize=20;fontStyle=0;rounded=1;labelBackgroundColor=#114B5F;fillColor=#F45B69;strokeColor=#028090;fontColor=#E4FDE1;" parent="SgiMwrDikQmU-P0cPzHS-195" vertex="1">
                    <mxGeometry y="26" width="243" height="8" as="geometry"/>
                </mxCell>
                <mxCell id="SgiMwrDikQmU-P0cPzHS-197" value="currSong" style="whiteSpace=wrap;html=1;rounded=0;sketch=1;hachureGap=4;fontFamily=Architects Daughter;fontSource=https%3A%2F%2Ffonts.googleapis.com%2Fcss%3Ffamily%3DArchitects%2BDaughter;fontSize=20;strokeColor=#36393d;fillColor=#cce5ff;fontColor=#FFFFFF;" parent="SgiMwrDikQmU-P0cPzHS-195" vertex="1">
                    <mxGeometry y="34" width="243" height="60" as="geometry"/>
                </mxCell>
                <mxCell id="SgiMwrDikQmU-P0cPzHS-192" value="SongButtons" style="swimlane;fontStyle=0;align=center;verticalAlign=top;childLayout=stackLayout;horizontal=1;startSize=26;horizontalStack=0;resizeParent=1;resizeLast=0;collapsible=1;marginBottom=0;rounded=1;shadow=0;strokeWidth=1;hachureGap=4;fontFamily=Verdana;fontSize=20;fillColor=#F45B69;strokeColor=#028090;fontColor=#E4FDE1;" parent="SgiMwrDikQmU-P0cPzHS-195" vertex="1">
                    <mxGeometry y="94" width="243" height="151" as="geometry">
                        <mxRectangle x="550" y="140" width="160" height="26" as="alternateBounds"/>
                    </mxGeometry>
                </mxCell>
                <mxCell id="SgiMwrDikQmU-P0cPzHS-193" value="" style="line;html=1;strokeWidth=1;align=left;verticalAlign=middle;spacingTop=-1;spacingLeft=3;spacingRight=3;rotatable=0;labelPosition=right;points=[];portConstraint=eastwest;hachureGap=4;fontFamily=Verdana;fontSize=20;fontStyle=0;rounded=1;labelBackgroundColor=#114B5F;fillColor=#F45B69;strokeColor=#028090;fontColor=#E4FDE1;" parent="SgiMwrDikQmU-P0cPzHS-192" vertex="1">
                    <mxGeometry y="26" width="243" height="8" as="geometry"/>
                </mxCell>
                <mxCell id="SgiMwrDikQmU-P0cPzHS-194" value="currSong" style="whiteSpace=wrap;html=1;rounded=0;sketch=1;hachureGap=4;fontFamily=Architects Daughter;fontSource=https%3A%2F%2Ffonts.googleapis.com%2Fcss%3Ffamily%3DArchitects%2BDaughter;fontSize=20;strokeColor=#36393d;fillColor=#cce5ff;fontColor=#FFFFFF;" parent="SgiMwrDikQmU-P0cPzHS-192" vertex="1">
                    <mxGeometry y="34" width="243" height="60" as="geometry"/>
                </mxCell>
                <mxCell id="SgiMwrDikQmU-P0cPzHS-139" value="" style="line;html=1;strokeWidth=1;align=left;verticalAlign=middle;spacingTop=-1;spacingLeft=3;spacingRight=3;rotatable=0;labelPosition=right;points=[];portConstraint=eastwest;hachureGap=4;fontFamily=Verdana;fontSize=20;fontStyle=0;rounded=1;labelBackgroundColor=#114B5F;fillColor=#F45B69;strokeColor=#028090;fontColor=#E4FDE1;" parent="SgiMwrDikQmU-P0cPzHS-138" vertex="1">
                    <mxGeometry y="491" width="243" height="8" as="geometry"/>
                </mxCell>
                <mxCell id="SgiMwrDikQmU-P0cPzHS-169" value="SynthComp" style="swimlane;fontStyle=0;align=center;verticalAlign=top;childLayout=stackLayout;horizontal=1;startSize=26;horizontalStack=0;resizeParent=1;resizeLast=0;collapsible=1;marginBottom=0;rounded=1;shadow=0;strokeWidth=3;hachureGap=4;fontFamily=Verdana;fontSize=20;fillColor=#F45B69;strokeColor=#00FFFF;fontColor=#E4FDE1;" parent="SgiMwrDikQmU-P0cPzHS-138" vertex="1">
                    <mxGeometry y="499" width="243" height="823" as="geometry">
                        <mxRectangle x="550" y="140" width="160" height="26" as="alternateBounds"/>
                    </mxGeometry>
                </mxCell>
                <mxCell id="SgiMwrDikQmU-P0cPzHS-170" value="" style="line;html=1;strokeWidth=1;align=left;verticalAlign=middle;spacingTop=-1;spacingLeft=3;spacingRight=3;rotatable=0;labelPosition=right;points=[];portConstraint=eastwest;hachureGap=4;fontFamily=Verdana;fontSize=20;fontStyle=0;rounded=1;labelBackgroundColor=#114B5F;fillColor=#F45B69;strokeColor=#028090;fontColor=#E4FDE1;" parent="SgiMwrDikQmU-P0cPzHS-169" vertex="1">
                    <mxGeometry y="26" width="243" height="8" as="geometry"/>
                </mxCell>
                <mxCell id="SgiMwrDikQmU-P0cPzHS-171" value="currEffects&lt;br&gt;notesArr&lt;br&gt;isRecording&lt;br&gt;currRecording" style="whiteSpace=wrap;html=1;rounded=0;sketch=1;hachureGap=4;fontFamily=Architects Daughter;fontSource=https%3A%2F%2Ffonts.googleapis.com%2Fcss%3Ffamily%3DArchitects%2BDaughter;fontSize=20;fontColor=#E4FDE1;strokeColor=#028090;fillColor=#F45B69;" parent="SgiMwrDikQmU-P0cPzHS-169" vertex="1">
                    <mxGeometry y="34" width="243" height="122" as="geometry"/>
                </mxCell>
                <mxCell id="SgiMwrDikQmU-P0cPzHS-172" value="isSignedIn" style="whiteSpace=wrap;html=1;rounded=0;sketch=1;hachureGap=4;fontFamily=Architects Daughter;fontSource=https%3A%2F%2Ffonts.googleapis.com%2Fcss%3Ffamily%3DArchitects%2BDaughter;fontSize=20;strokeColor=#FFFFFF;fillColor=#cce5ff;fontColor=#FFFFFF;" parent="SgiMwrDikQmU-P0cPzHS-169" vertex="1">
                    <mxGeometry y="156" width="243" height="60" as="geometry"/>
                </mxCell>
                <mxCell id="SgiMwrDikQmU-P0cPzHS-173" value="Keyboard" style="swimlane;fontStyle=0;align=center;verticalAlign=top;childLayout=stackLayout;horizontal=1;startSize=26;horizontalStack=0;resizeParent=1;resizeLast=0;collapsible=1;marginBottom=0;rounded=1;shadow=0;strokeWidth=1;hachureGap=4;fontFamily=Verdana;fontSize=20;fillColor=#F45B69;strokeColor=#028090;fontColor=#E4FDE1;" parent="SgiMwrDikQmU-P0cPzHS-169" vertex="1">
                    <mxGeometry y="216" width="243" height="100" as="geometry">
                        <mxRectangle x="550" y="140" width="160" height="26" as="alternateBounds"/>
                    </mxGeometry>
                </mxCell>
                <mxCell id="SgiMwrDikQmU-P0cPzHS-174" value="" style="line;html=1;strokeWidth=1;align=left;verticalAlign=middle;spacingTop=-1;spacingLeft=3;spacingRight=3;rotatable=0;labelPosition=right;points=[];portConstraint=eastwest;hachureGap=4;fontFamily=Verdana;fontSize=20;fontStyle=0;rounded=1;labelBackgroundColor=#114B5F;fillColor=#F45B69;strokeColor=#028090;fontColor=#E4FDE1;" parent="SgiMwrDikQmU-P0cPzHS-173" vertex="1">
                    <mxGeometry y="26" width="243" height="8" as="geometry"/>
                </mxCell>
                <mxCell id="SgiMwrDikQmU-P0cPzHS-175" value="notesArr&lt;br&gt;handleNoteClick()" style="whiteSpace=wrap;html=1;rounded=0;sketch=1;hachureGap=4;fontFamily=Architects Daughter;fontSource=https%3A%2F%2Ffonts.googleapis.com%2Fcss%3Ffamily%3DArchitects%2BDaughter;fontSize=20;strokeColor=#FFFFFF;fillColor=#cce5ff;fontColor=#FFFFFF;" parent="SgiMwrDikQmU-P0cPzHS-173" vertex="1">
                    <mxGeometry y="34" width="243" height="60" as="geometry"/>
                </mxCell>
                <mxCell id="SgiMwrDikQmU-P0cPzHS-176" value="Record Buttons" style="swimlane;fontStyle=0;align=center;verticalAlign=top;childLayout=stackLayout;horizontal=1;startSize=26;horizontalStack=0;resizeParent=1;resizeLast=0;collapsible=1;marginBottom=0;rounded=1;shadow=0;strokeWidth=1;hachureGap=4;fontFamily=Verdana;fontSize=20;fillColor=#F45B69;strokeColor=#028090;fontColor=#E4FDE1;" parent="SgiMwrDikQmU-P0cPzHS-169" vertex="1">
                    <mxGeometry y="316" width="243" height="453" as="geometry">
                        <mxRectangle y="316" width="243" height="26" as="alternateBounds"/>
                    </mxGeometry>
                </mxCell>
                <mxCell id="SgiMwrDikQmU-P0cPzHS-177" value="" style="line;html=1;strokeWidth=1;align=left;verticalAlign=middle;spacingTop=-1;spacingLeft=3;spacingRight=3;rotatable=0;labelPosition=right;points=[];portConstraint=eastwest;hachureGap=4;fontFamily=Verdana;fontSize=20;fontStyle=0;rounded=1;labelBackgroundColor=#114B5F;fillColor=#F45B69;strokeColor=#028090;fontColor=#E4FDE1;" parent="SgiMwrDikQmU-P0cPzHS-176" vertex="1">
                    <mxGeometry y="26" width="243" height="8" as="geometry"/>
                </mxCell>
                <mxCell id="SgiMwrDikQmU-P0cPzHS-178" value="rec/stop" style="text;html=1;align=center;verticalAlign=middle;resizable=0;points=[];autosize=1;strokeColor=none;fillColor=none;rounded=0;sketch=1;hachureGap=4;fontFamily=Architects Daughter;fontSource=https%3A%2F%2Ffonts.googleapis.com%2Fcss%3Ffamily%3DArchitects%2BDaughter;fontSize=20;fontColor=#E4FDE1;rotation=0;" parent="SgiMwrDikQmU-P0cPzHS-176" vertex="1">
                    <mxGeometry y="34" width="243" height="28" as="geometry"/>
                </mxCell>
                <mxCell id="SgiMwrDikQmU-P0cPzHS-179" value="Save Rec" style="text;html=1;align=center;verticalAlign=middle;resizable=0;points=[];autosize=1;strokeColor=none;fillColor=none;rounded=0;sketch=1;hachureGap=4;fontFamily=Architects Daughter;fontSource=https%3A%2F%2Ffonts.googleapis.com%2Fcss%3Ffamily%3DArchitects%2BDaughter;fontSize=20;fontColor=#E4FDE1;" parent="SgiMwrDikQmU-P0cPzHS-176" vertex="1">
                    <mxGeometry y="62" width="243" height="28" as="geometry"/>
                </mxCell>
                <mxCell id="SgiMwrDikQmU-P0cPzHS-180" value="Scrap Rec" style="text;html=1;align=center;verticalAlign=middle;resizable=0;points=[];autosize=1;strokeColor=none;fillColor=none;rounded=0;sketch=1;hachureGap=4;fontFamily=Architects Daughter;fontSource=https%3A%2F%2Ffonts.googleapis.com%2Fcss%3Ffamily%3DArchitects%2BDaughter;fontSize=20;fontColor=#E4FDE1;" parent="SgiMwrDikQmU-P0cPzHS-176" vertex="1">
                    <mxGeometry y="90" width="243" height="28" as="geometry"/>
                </mxCell>
                <mxCell id="SgiMwrDikQmU-P0cPzHS-181" value="Play Rec" style="text;html=1;align=center;verticalAlign=middle;resizable=0;points=[];autosize=1;strokeColor=none;fillColor=none;rounded=0;sketch=1;hachureGap=4;fontFamily=Architects Daughter;fontSource=https%3A%2F%2Ffonts.googleapis.com%2Fcss%3Ffamily%3DArchitects%2BDaughter;fontSize=20;fontColor=#E4FDE1;" parent="SgiMwrDikQmU-P0cPzHS-176" vertex="1">
                    <mxGeometry y="118" width="243" height="28" as="geometry"/>
                </mxCell>
                <mxCell id="SgiMwrDikQmU-P0cPzHS-182" value="HandleRecord()&lt;br&gt;HandlePlay()&lt;br&gt;" style="whiteSpace=wrap;rounded=0;sketch=1;hachureGap=4;fontFamily=Architects Daughter;fontSource=https%3A%2F%2Ffonts.googleapis.com%2Fcss%3Ffamily%3DArchitects%2BDaughter;fontSize=20;strokeColor=#36393d;fillColor=#cce5ff;fontColor=#FFFFFF;spacing=2;html=1;horizontal=1;verticalAlign=top;" parent="SgiMwrDikQmU-P0cPzHS-176" vertex="1">
                    <mxGeometry y="146" width="243" height="64" as="geometry"/>
                </mxCell>
                <mxCell id="SgiMwrDikQmU-P0cPzHS-183" value="Effect Buttons" style="swimlane;fontStyle=0;align=center;verticalAlign=top;childLayout=stackLayout;horizontal=1;startSize=26;horizontalStack=0;resizeParent=1;resizeLast=0;collapsible=1;marginBottom=0;rounded=1;shadow=0;strokeWidth=1;hachureGap=4;fontFamily=Verdana;fontSize=20;fillColor=#F45B69;strokeColor=#028090;fontColor=#E4FDE1;" parent="SgiMwrDikQmU-P0cPzHS-176" vertex="1">
                    <mxGeometry y="210" width="243" height="243" as="geometry">
                        <mxRectangle x="340" y="380" width="170" height="26" as="alternateBounds"/>
                    </mxGeometry>
                </mxCell>
                <mxCell id="SgiMwrDikQmU-P0cPzHS-184" value="" style="line;html=1;strokeWidth=1;align=left;verticalAlign=middle;spacingTop=-1;spacingLeft=3;spacingRight=3;rotatable=0;labelPosition=right;points=[];portConstraint=eastwest;hachureGap=4;fontFamily=Verdana;fontSize=20;fontStyle=0;rounded=1;labelBackgroundColor=#114B5F;fillColor=#F45B69;strokeColor=#028090;fontColor=#E4FDE1;" parent="SgiMwrDikQmU-P0cPzHS-183" vertex="1">
                    <mxGeometry y="26" width="243" height="8" as="geometry"/>
                </mxCell>
                <mxCell id="SgiMwrDikQmU-P0cPzHS-185" value="rec/stop" style="text;html=1;align=center;verticalAlign=middle;resizable=0;points=[];autosize=1;strokeColor=none;fillColor=none;rounded=0;sketch=1;hachureGap=4;fontFamily=Architects Daughter;fontSource=https%3A%2F%2Ffonts.googleapis.com%2Fcss%3Ffamily%3DArchitects%2BDaughter;fontSize=20;fontColor=#E4FDE1;rotation=0;" parent="SgiMwrDikQmU-P0cPzHS-183" vertex="1">
                    <mxGeometry y="34" width="243" height="28" as="geometry"/>
                </mxCell>
                <mxCell id="SgiMwrDikQmU-P0cPzHS-186" value="Save Rec" style="text;html=1;align=center;verticalAlign=middle;resizable=0;points=[];autosize=1;strokeColor=none;fillColor=none;rounded=0;sketch=1;hachureGap=4;fontFamily=Architects Daughter;fontSource=https%3A%2F%2Ffonts.googleapis.com%2Fcss%3Ffamily%3DArchitects%2BDaughter;fontSize=20;fontColor=#E4FDE1;" parent="SgiMwrDikQmU-P0cPzHS-183" vertex="1">
                    <mxGeometry y="62" width="243" height="28" as="geometry"/>
                </mxCell>
                <mxCell id="SgiMwrDikQmU-P0cPzHS-187" value="Scrap Rec" style="text;html=1;align=center;verticalAlign=middle;resizable=0;points=[];autosize=1;strokeColor=none;fillColor=none;rounded=0;sketch=1;hachureGap=4;fontFamily=Architects Daughter;fontSource=https%3A%2F%2Ffonts.googleapis.com%2Fcss%3Ffamily%3DArchitects%2BDaughter;fontSize=20;fontColor=#E4FDE1;" parent="SgiMwrDikQmU-P0cPzHS-183" vertex="1">
                    <mxGeometry y="90" width="243" height="28" as="geometry"/>
                </mxCell>
                <mxCell id="SgiMwrDikQmU-P0cPzHS-188" value="Play Rec" style="text;html=1;align=center;verticalAlign=middle;resizable=0;points=[];autosize=1;strokeColor=none;fillColor=none;rounded=0;sketch=1;hachureGap=4;fontFamily=Architects Daughter;fontSource=https%3A%2F%2Ffonts.googleapis.com%2Fcss%3Ffamily%3DArchitects%2BDaughter;fontSize=20;fontColor=#E4FDE1;" parent="SgiMwrDikQmU-P0cPzHS-183" vertex="1">
                    <mxGeometry y="118" width="243" height="28" as="geometry"/>
                </mxCell>
                <mxCell id="SgiMwrDikQmU-P0cPzHS-189" value="handleEffectChange" style="whiteSpace=wrap;html=1;rounded=0;sketch=1;hachureGap=4;fontFamily=Architects Daughter;fontSource=https%3A%2F%2Ffonts.googleapis.com%2Fcss%3Ffamily%3DArchitects%2BDaughter;fontSize=20;strokeColor=#36393d;fillColor=#cce5ff;fontColor=#FFFFFF;" parent="SgiMwrDikQmU-P0cPzHS-183" vertex="1">
                    <mxGeometry y="146" width="243" height="44" as="geometry"/>
                </mxCell>
                <mxCell id="SgiMwrDikQmU-P0cPzHS-190" value="effect input values" style="whiteSpace=wrap;html=1;rounded=0;sketch=1;hachureGap=4;fontFamily=Architects Daughter;fontSource=https%3A%2F%2Ffonts.googleapis.com%2Fcss%3Ffamily%3DArchitects%2BDaughter;fontSize=20;fontColor=#FFFFFF;strokeColor=#FFFFFF;fillColor=#F45B69;gradientColor=none;" parent="SgiMwrDikQmU-P0cPzHS-183" vertex="1">
                    <mxGeometry y="190" width="243" height="51" as="geometry"/>
                </mxCell>
                <mxCell id="SgiMwrDikQmU-P0cPzHS-140" value="Learn to play doc" style="swimlane;fontStyle=0;align=center;verticalAlign=top;childLayout=stackLayout;horizontal=1;startSize=26;horizontalStack=0;resizeParent=1;resizeLast=0;collapsible=1;marginBottom=0;rounded=1;shadow=0;strokeWidth=1;hachureGap=4;fontFamily=Verdana;fontSize=20;fillColor=#cdeb8b;strokeColor=#36393d;" parent="1" vertex="1">
                    <mxGeometry x="1318" y="-33" width="243" height="267" as="geometry">
                        <mxRectangle x="550" y="140" width="160" height="26" as="alternateBounds"/>
                    </mxGeometry>
                </mxCell>
                <mxCell id="SgiMwrDikQmU-P0cPzHS-141" value="" style="line;html=1;strokeWidth=1;align=left;verticalAlign=middle;spacingTop=-1;spacingLeft=3;spacingRight=3;rotatable=0;labelPosition=right;points=[];portConstraint=eastwest;hachureGap=4;fontFamily=Verdana;fontSize=20;fontStyle=0;rounded=1;labelBackgroundColor=#114B5F;fillColor=#F45B69;strokeColor=#028090;fontColor=#E4FDE1;" parent="SgiMwrDikQmU-P0cPzHS-140" vertex="1">
                    <mxGeometry y="26" width="243" height="8" as="geometry"/>
                </mxCell>
                <mxCell id="SgiMwrDikQmU-P0cPzHS-198" value="Information about notes and notation&lt;br&gt;" style="text;html=1;align=center;verticalAlign=middle;resizable=0;points=[];autosize=1;strokeColor=none;fillColor=none;rounded=0;sketch=1;hachureGap=4;fontFamily=Architects Daughter;fontSource=https%3A%2F%2Ffonts.googleapis.com%2Fcss%3Ffamily%3DArchitects%2BDaughter;fontSize=20;fontColor=#FFFFFF;glass=0;" parent="SgiMwrDikQmU-P0cPzHS-140" vertex="1">
                    <mxGeometry y="34" width="243" height="28" as="geometry"/>
                </mxCell>
                <mxCell id="SgiMwrDikQmU-P0cPzHS-154" value="NavBar" style="swimlane;fontStyle=0;align=center;verticalAlign=top;childLayout=stackLayout;horizontal=1;startSize=26;horizontalStack=0;resizeParent=1;resizeLast=0;collapsible=1;marginBottom=0;rounded=1;shadow=0;strokeWidth=1;hachureGap=4;fontFamily=Verdana;fontSize=20;fillColor=#F45B69;strokeColor=#028090;fontColor=#E4FDE1;" parent="1" vertex="1">
                    <mxGeometry x="1264" y="359" width="243" height="267" as="geometry">
                        <mxRectangle x="550" y="140" width="160" height="26" as="alternateBounds"/>
                    </mxGeometry>
                </mxCell>
                <mxCell id="SgiMwrDikQmU-P0cPzHS-155" value="" style="line;html=1;strokeWidth=1;align=left;verticalAlign=middle;spacingTop=-1;spacingLeft=3;spacingRight=3;rotatable=0;labelPosition=right;points=[];portConstraint=eastwest;hachureGap=4;fontFamily=Verdana;fontSize=20;fontStyle=0;rounded=1;labelBackgroundColor=#114B5F;fillColor=#F45B69;strokeColor=#028090;fontColor=#E4FDE1;" parent="SgiMwrDikQmU-P0cPzHS-154" vertex="1">
                    <mxGeometry y="26" width="243" height="8" as="geometry"/>
                </mxCell>
                <mxCell id="SgiMwrDikQmU-P0cPzHS-158" value="isSignedIn" style="whiteSpace=wrap;html=1;rounded=0;sketch=1;hachureGap=4;fontFamily=Architects Daughter;fontSource=https%3A%2F%2Ffonts.googleapis.com%2Fcss%3Ffamily%3DArchitects%2BDaughter;fontSize=20;strokeColor=#36393d;fillColor=#cce5ff;fontColor=#FFFFFF;" parent="SgiMwrDikQmU-P0cPzHS-154" vertex="1">
                    <mxGeometry y="34" width="243" height="60" as="geometry"/>
                </mxCell>
            </root>
        </mxGraphModel>
    </diagram>
</mxfile>